<svg id="Layer_1" data-name="Layer 1" xmlns="http://www.w3.org/2000/svg" viewBox="0 0 17 16.5"><defs><style>.cls-1{fill:none;stroke:#000;stroke-miterlimit:10;}</style></defs><path class="cls-1" d="M404.87,407.68h-9.64a.81.81,0,0,1-.76-.59l-2.49-8a.88.88,0,0,1,.76-1.17h14.4a.87.87,0,0,1,.76,1.14l-2.27,8A.81.81,0,0,1,404.87,407.68Z" transform="translate(-391.44 -391.68)"/><path class="cls-1" d="M404.63,401.31" transform="translate(-391.44 -391.68)"/><path class="cls-1" d="M394.94,401.31" transform="translate(-391.44 -391.68)"/><path class="cls-1" d="M401.17,392.65" transform="translate(-391.44 -391.68)"/><path class="cls-1" d="M404.49,398.12" transform="translate(-391.44 -391.68)"/><path class="cls-1" d="M399,392.65" transform="translate(-391.44 -391.68)"/><path class="cls-1" d="M395.35,398.12" transform="translate(-391.44 -391.68)"/><rect x="3.66" y="9.19" width="9.95" height="1.19" rx="0.59"/><rect x="5.04" y="12.23" width="7.46" height="1.19" rx="0.59"/><path d="M395.77,398.23l3.49-5.62a.62.62,0,0,0-.14-.82h0a.51.51,0,0,0-.75.15l-3.49,5.62a.63.63,0,0,0,.14.83h0A.51.51,0,0,0,395.77,398.23Z" transform="translate(-391.44 -391.68)"/><path d="M404.18,398.23l-3.49-5.62a.63.63,0,0,1,.14-.82h0a.52.52,0,0,1,.76.15l3.49,5.62a.63.63,0,0,1-.15.83h0A.52.52,0,0,1,404.18,398.23Z" transform="translate(-391.44 -391.68)"/></svg>