<svg id="Layer_1" data-name="Layer 1" xmlns="http://www.w3.org/2000/svg" viewBox="0 0 17 15.48"><defs><style>.cls-1,.cls-2{fill:#fff;}.cls-2,.cls-3{stroke:#000;stroke-miterlimit:10;}.cls-3{fill:none;}</style></defs><path class="cls-1" d="M401.29,392.16c.27-1,1.25-3.5,2.57-3.68l.15,0a2.72,2.72,0,0,1,2.27,1.66,1.64,1.64,0,0,1-.41,1.31,6.82,6.82,0,0,1-5,2.12Zm-.58,1.39a6.78,6.78,0,0,1-5-2.12,1.64,1.64,0,0,1-.41-1.31,2.7,2.7,0,0,1,2.26-1.66l.16,0c1.32.18,2.3,2.72,2.57,3.68Z" transform="translate(-393.44 -387.97)"/><path d="M397.6,389h.09c.84.12,1.79,2,2.15,3.32l.2.72a6.07,6.07,0,0,1-3.9-1.89,1.23,1.23,0,0,1-.32-.88A2.21,2.21,0,0,1,397.6,389m6.42,0h0a2.21,2.21,0,0,1,1.77,1.27,1.18,1.18,0,0,1-.32.88,6,6,0,0,1-3.89,1.89l.19-.72c.37-1.31,1.32-3.2,2.15-3.32h.1m0-1h-.23c-1.94.27-3,4-3,4s-1-3.78-3-4h-.23a3.19,3.19,0,0,0-2.75,2c-.44,1.82,2.62,4.05,6,4.05s6.4-2.23,5.95-4.05a3.18,3.18,0,0,0-2.74-2Z" transform="translate(-393.44 -387.97)"/><rect class="cls-2" x="1.39" y="4.54" width="14.22" height="10.43"/><rect class="cls-2" x="0.5" y="4.54" width="16" height="1.96"/><path class="cls-3" d="M406.62,404" transform="translate(-393.44 -387.97)"/><rect x="6.91" y="4.5" width="0.92" height="10.43"/></svg>