<svg xmlns="http://www.w3.org/2000/svg" viewBox="0 0 110.54 89.82"><defs><style>.cls-1{fill:#ddcef0;}.cls-2{opacity:0.28;}.cls-3{fill:#ff7bac;}.cls-4{opacity:0.34;}.cls-5{fill:#c5c5c5;}.cls-6{opacity:0.43;}.cls-7{opacity:0.31;}.cls-8{fill:#f7c594;}.cls-9{fill:none;stroke:#000;stroke-miterlimit:10;stroke-width:0.5px;}</style></defs><g id="Layer_1" data-name="Layer 1"><path class="cls-1" d="M85.63,48.72c-17.95,0-32.5,15-32.5,33.5,0,16.45,11.51,30.12,26.67,33a28.82,28.82,0,0,0-.19-7.59,6.31,6.31,0,0,1-.08-1.06c-5.66-.76-9.63-5-11.68-10.24a22.27,22.27,0,0,1-3.52-13c.35-8.46,4.17-17.26,11-21.57a21.89,21.89,0,0,1,4.9-2.79C87.38,56,94.51,58,99.59,62.61c5.2,2.94,9,7.69,9.56,14.46a27,27,0,0,1-9.83,22.37c-2.27,2.92-4.65,5.74-7.87,7.58a27.16,27.16,0,0,1,0,8.15c15.15-2.84,26.64-16.51,26.64-32.95C118.13,63.72,103.58,48.72,85.63,48.72Z" transform="translate(-40.73 -48.72)"/><g class="cls-2"><path class="cls-3" d="M90.76,88.45a5.08,5.08,0,0,1,5.87.18.76.76,0,0,0,1-.27.78.78,0,0,0-.27-1A6.54,6.54,0,0,0,90,87.15c-.81.53-.06,1.83.75,1.3Z" transform="translate(-40.73 -48.72)"/></g><g class="cls-2"><path class="cls-3" d="M74.9,86.4l-.19.1-.07,0c-.09,0,.13-.05,0,0a2.4,2.4,0,0,1-.38.12,1.42,1.42,0,0,0-.2,0s.15,0,.06,0h-.56l-.19,0-.17,0-.1,0-.06,0c.09,0,0,0,0,0a.31.31,0,0,0-.1-.05l-.23-.11a1.32,1.32,0,0,0-.62-.12,1,1,0,0,0-1,.92,1.21,1.21,0,0,0,.54,1.14,2,2,0,0,0,1,.28,2.83,2.83,0,0,0,1-.11,3.34,3.34,0,0,0,1-.46l.2-.14.07,0c.07,0-.14,0,0,0s0,0-.06,0a.17.17,0,0,0,.1,0c-.08,0-.15,0-.06,0s-.23-.16-.15-.07l.73-1.25a6.43,6.43,0,0,0-3.68-.35.74.74,0,0,0-.52.92.76.76,0,0,0,.92.53.93.93,0,0,1,.23,0h-.08l.12,0,.42,0q.39,0,.78,0s.22,0,0,0a1.52,1.52,0,0,1,.21,0,2.62,2.62,0,0,1,.38.09A5.61,5.61,0,0,1,75,88a.75.75,0,0,0,.85-.34.77.77,0,0,0-.12-.91,1.19,1.19,0,0,0-1-.36,1.88,1.88,0,0,0-.91.37l-.3.2s-.21.09-.11.06,0,0,0,0l-.1,0-.19,0-.09,0c-.1,0,0,0,0,0a1.11,1.11,0,0,0-.17,0H72.6c-.08,0,.06,0,.06,0s-.12,0-.16,0-.06,0-.07,0h0c.06,0,.06,0,0,0s-.09-.08,0,0a.23.23,0,0,1,.07.07c0,.05,0,.06,0,0s0,.15,0,.06,0,.11,0,.1,0,.17,0,.1-.14.23-.13.21a.55.55,0,0,1-.32.12h0c-.12,0,0,0,0,0h0c-.09,0-.11,0-.06,0a3.92,3.92,0,0,0,1.68.44,3.51,3.51,0,0,0,1.84-.5.75.75,0,0,0-.75-1.29Z" transform="translate(-40.73 -48.72)"/></g><g class="cls-4"><path class="cls-5" d="M66.85,85.69,92.22,66.05c1.26-1-.14-2.81-1.46-2.5A56.35,56.35,0,0,0,64.41,78c-1.4,1.36.68,3.39,2.12,2.13L79.84,68.49l-2.12-2.12L69,76.87A1.5,1.5,0,0,0,71.13,79L84,67.13a1.5,1.5,0,0,0-.3-2.35A13.35,13.35,0,0,0,64,74.15a1.5,1.5,0,0,0,2.74,1.15A41.41,41.41,0,0,1,84.38,61.37a1.51,1.51,0,0,0,0-2.89C77.69,56,69.78,60,67.52,66.65,67,68.13,69,69.08,70,68.11A41.42,41.42,0,0,1,96.4,56.91a1.5,1.5,0,0,0,0-3,36.9,36.9,0,0,0-21.27,4,1.5,1.5,0,0,0,1.15,2.74,44.21,44.21,0,0,1,26.64-.54v-2.9l-25.52,4c-1.68.27-1.26,3,.4,3l17.86-.54-.4-2.94L84.12,65.24c-1.75.72-1,3.6.8,2.9l7.9-3.09-1.15-2.74-2,1.51a1.55,1.55,0,0,0-.61,1.88,1.49,1.49,0,0,0,1.77.87,16,16,0,0,1,16.66,2.66c.86.77,2.73.34,2.56-1.06a13.24,13.24,0,0,0-5.31-9.26c-1.4-1.06-2.92,1.16-1.81,2.36l7.37,7.95V67.1l-3.23,3h2.12a23.7,23.7,0,0,0-7.72-5.71C99,63.29,96,62.25,93.29,63.13a5.08,5.08,0,0,0-3.24,6.57c1,3.19,4.09,4.62,7,5.83l.8-2.9L87.58,70.28c-1.88-.43-2.68,2.44-.8,2.9a27.12,27.12,0,0,1,16.47,11.65L105.6,83A37.27,37.27,0,0,1,95.17,65.2L93,66.9a12.6,12.6,0,0,1,7.48,11.31,1.5,1.5,0,0,0,2.94.4l2.7-9.88-3-.4-.58,10.39c-.1,1.83,2.35,1.83,3,.4l.92-2.22-2.9-.8L100.81,87c-.47,1.87,2.42,2.67,2.89.8l2.73-10.93c.48-1.93-2.18-2.53-2.9-.8l-.91,2.22,2.94.4.58-10.39c.1-1.71-2.51-2-3-.4l-2.69,9.88,3,.4a15.54,15.54,0,0,0-9-13.9A1.52,1.52,0,0,0,92.28,66a40.16,40.16,0,0,0,11.2,19.13c1.2,1.14,3.31-.34,2.36-1.82a30.28,30.28,0,0,0-18.26-13l-.8,2.9L97,75.53a1.51,1.51,0,0,0,.8-2.9c-1.89-.79-4.27-1.75-4.92-3.9s1.23-3,3.08-2.89c4.23.3,8.4,3.39,11.13,6.42a1.53,1.53,0,0,0,2.12,0l3.23-3a1.52,1.52,0,0,0,0-2.12l-7.37-7.95-1.82,2.35a9.92,9.92,0,0,1,3.82,6.67l2.56-1.06a19,19,0,0,0-19.58-3.44l1.16,2.74,2-1.51A1.52,1.52,0,0,0,93.79,63,1.48,1.48,0,0,0,92,62.16l-7.9,3.08.8,2.9,11.13-4.58c1.45-.59,1.44-3-.39-3l-17.86.54.4,2.94,25.52-4c1.54-.25,1.31-2.51,0-2.9a47.24,47.24,0,0,0-28.24.54l1.16,2.75A34.14,34.14,0,0,1,96.4,56.91v-3A44.63,44.63,0,0,0,67.9,66l2.51,1.46c1.77-5.24,8.08-8,13.17-6.08V58.48a45.05,45.05,0,0,0-19.4,15.31L66.92,75a10.5,10.5,0,0,1,15.3-7.58L81.92,65,69,76.87,71.13,79l8.71-10.5a1.5,1.5,0,0,0-2.12-2.12L64.41,78l2.12,2.13a53.31,53.31,0,0,1,25-13.7l-1.46-2.51L64.73,83.57a1.52,1.52,0,0,0,0,2.12,1.54,1.54,0,0,0,2.12,0Z" transform="translate(-40.73 -48.72)"/></g><g class="cls-6"><path class="cls-5" d="M90.49,73.39A12.92,12.92,0,0,1,102.4,83.64a1.51,1.51,0,0,0,1.84,1,1.53,1.53,0,0,0,1.05-1.84A19.62,19.62,0,0,0,94.44,68.94v2.59c2.81-2,5.38,1.92,6.61,3.91l2.59-1.51-4-5.5a1.54,1.54,0,0,0-2-.53A1.51,1.51,0,0,0,97,70l4,5.49a1.5,1.5,0,0,0,2.59-1.51c-1.17-1.9-2.46-3.93-4.47-5a5.92,5.92,0,0,0-6.24,0c-.82.59-1.12,2.07,0,2.59a16.86,16.86,0,0,1,9.47,12.11l2.89-.79a15.94,15.94,0,0,0-14.8-12.46c-1.93-.07-1.93,2.93,0,3Z" transform="translate(-40.73 -48.72)"/></g><g class="cls-6"><path class="cls-5" d="M92.71,62.92,68.48,76.24,70.3,78.6A63.72,63.72,0,0,1,97,64.26a1.51,1.51,0,0,0,0-2.89,32.47,32.47,0,0,0-31.71,8.05c-1.38,1.38.68,3.39,2.12,2.12a95.49,95.49,0,0,1,21.09-14c1.65-.8.39-3-1.16-2.74a33,33,0,0,0-15.59,7c-1.18,1,.09,3,1.46,2.51,6.77-2.21,13.76-4.49,21-3.9a19.51,19.51,0,0,1,15.61,9.49l2-2L100.1,62c-1.72-.87-3.25,1.72-1.52,2.59l11.72,5.89a1.51,1.51,0,0,0,2-2.06,22.45,22.45,0,0,0-16.9-10.84c-7.91-1-15.66,1.46-23.08,3.88L73.83,64A30,30,0,0,1,88.1,57.72L86.94,55A98.39,98.39,0,0,0,65.25,69.42l2.12,2.12a29.44,29.44,0,0,1,28.79-7.28V61.37a67,67,0,0,0-28,15.11c-1.29,1.17.36,3.16,1.82,2.36L94.23,65.51c1.69-.93.18-3.53-1.52-2.59Z" transform="translate(-40.73 -48.72)"/></g><g class="cls-7"><path class="cls-8" d="M73.44,94.79c.28-3,.69-6.16,2.83-8.15s4.43-4.3,7.13-5.6a2.19,2.19,0,0,1,.54-.22c.14,0,1-.4.55-.16h.29c-.32-.06-.33-.06,0,0s.56.16.83.24.64.2,1,.32.82.38.28.09a10.69,10.69,0,0,1,1.83,1.2,27.17,27.17,0,0,0,4.38,3c1.16.61,2.38,1.27,2.27,2.52l3.8-2.89-7.31-1.57a35,35,0,0,0-7.26-1.06c-4.13,0-8.57,1.85-10.43,5.77-.88,1.88.13,4.7,2.59,4.52a95.49,95.49,0,0,1,20.83.68L96.79,88c-3.85,2.34-8.65,1.49-12.92,1.32-4.9-.19-9.71.46-13.61,3.65-2.1,1.72-.28,5.09,2.13,5.12,5.35.08,10.7.19,16.06.24,5.13,0,10.2-.3,14.91-2.5l-3-5.18c-3.86,3-8.73,2.86-13.4,2.59-5.6-.34-11.2-.59-16.36,2a3,3,0,0,0-1.38,3.39,3.09,3.09,0,0,0,2.89,2.2,2.8,2.8,0,0,1,1.32,1,19.05,19.05,0,0,0,1.72,2.07c.68.62,1.44,1.16,2.11,1.8.16.15.31.31.45.47-.15-.2-.13-.15.06.14-.17-.4.07.38.09.47.46,2.16,1.11,4.14,3.53,4.78,2.11.56,3.94-.51,5.44-1.89.24-.21.47-.44.7-.66a4.48,4.48,0,0,1,.4-.36c-.29.2-.3.21,0,0s.26-.15-.13.05-.55.09-.06.09a5.15,5.15,0,0,0,1.73-.29c1.88-.61,3-2.43,4.54-3.2l-.09,0c.19-.07.38-.12.57-.17.4-.11.81-.19,1.21-.3a6.59,6.59,0,0,0,2.84-1.49A6.71,6.71,0,0,0,100,96.51a3.08,3.08,0,0,0-3.69-2.09,3,3,0,0,0-2.09,3.69,1.87,1.87,0,0,1,.16.49s-.16.65-.27.62,1.12-.53.2-.27l-.9.25a10.24,10.24,0,0,0-4.62,2.49c-.6.55-.85.94-1.43,1.15.25-.09.48-.11-.06-.12a4.31,4.31,0,0,0-1.38.2,10.21,10.21,0,0,0-3.59,2.63c-.17.14-.14.12.08,0a3.74,3.74,0,0,1-.42.27c0-.21.79-.12.93-.07a1.88,1.88,0,0,1,.81.6c.14.32.17.32.06,0a6.19,6.19,0,0,0-.15-.86A7.7,7.7,0,0,0,81,100.93c-.61-.53-1.27-1-1.85-1.57,0,0-.64-.73-.33-.34-.39-.49-.72-1-1.14-1.5a7.88,7.88,0,0,0-5.56-2.71l1.52,5.59c4.56-2.27,10.05-1.28,14.93-1.08,5.09.21,10.65-.27,14.83-3.49a3.1,3.1,0,0,0,1.08-4.1,3.07,3.07,0,0,0-4.11-1.08c-3.94,1.84-8.51,1.73-12.77,1.67l-15.17-.23,2.12,5.12c3-2.45,7.61-2,11.32-1.78,4.78.28,9.76.33,14-2.25a3,3,0,0,0,1.43-3,3,3,0,0,0-2.15-2.5,102.54,102.54,0,0,0-22.42-.89l2.59,4.51A4.15,4.15,0,0,1,81.65,89,9.51,9.51,0,0,1,86,88.58c3.86.36,7.75,1.53,11.54,2.35a3.05,3.05,0,0,0,3.79-2.9,7.63,7.63,0,0,0-3.45-6.6c-1.55-1.13-3.32-1.83-4.81-3C90,76,86,73.7,82,75.14s-6.9,4.42-9.86,7.12c-3.56,3.25-4.3,7.95-4.73,12.53a3,3,0,0,0,3,3,3.06,3.06,0,0,0,3-3Z" transform="translate(-40.73 -48.72)"/></g><g class="cls-7"><path class="cls-8" d="M80.12,112.16a10.29,10.29,0,0,1-3.87,7.12,8.93,8.93,0,0,1-4.32,1.91c.24,0-.74,0-.91,0-.51,0,0,.06-.57-.07-.17,0-.54-.21-.4-.11-.47-.36,0,0-.13-.27-.45-1.82-.46-3.86-2.19-5.37s-4.1-1.78-6.2-2.3l-14.18-3.46-1.59,5.78,9,1.55c1.78.31,5.24.45,6.32,1.74s.64,3.54,0,5.38c-.87,2.72-2.21,5.41-2.18,8.34s1.88,6,5.15,6.1c3.48.14,5.16-2.73,6.87-5.21,2.78-4.06,8.18-5.62,12.19-8.1,5.3-3.26,9.9-9,8.07-15.6-.57-2-2.65-2.54-4.4-1.79-3.35,1.43-4.43,5.8-3.36,9,1.27,3.83,4.92,5.83,8.36,7.41,4,1.83,8.67,3.12,12.41,0a14.5,14.5,0,0,0,3-4.19,4.22,4.22,0,0,1,3-2.37c2.21-.59,4.51-.91,6.76-1.33l7.75-1.47-2.31-5.48a31.76,31.76,0,0,1-8.79,4.1c-3.27.93-6.82,1.08-9.82,2.82s-5.27,5.07-4.59,8.63a6.56,6.56,0,0,0,7.73,5.27,3,3,0,0,0,2.15-2.5,3.09,3.09,0,0,0-1.43-3c-5-3.81-12.49-3.42-18.43-2.7A58.71,58.71,0,0,0,70,127.76c-2.68,1.33-1.38,5.69,1.51,5.59l31.29-1.12-2.13-5.12c-1.34,1.3-3.43,1.63-5.29,1.79-3,.24-6,.37-9,.55l-18.49,1.11a3,3,0,0,0,0,6l27.85,1.34c3.88.18,8.71,1,11.85-1.89,3.69-3.4,2-8.44-.26-12.09-2-3.29-7.2-.28-5.18,3,.69,1.13,1.74,2.56,1.63,3.9-.08,1-.59,1.07-1.6,1.23a28.16,28.16,0,0,1-4.45-.09l-6-.28-23.87-1.15v6l20-1.2c5.64-.34,12.67.24,17-4a3,3,0,0,0-2.12-5.12l-31.29,1.12L73,132.94a50.87,50.87,0,0,1,16.21-4.89,48,48,0,0,1,8.56-.33,12.06,12.06,0,0,1,6.84,2.21l.72-5.48s.27,0,.28,0c.07.22-.15,0-.15,0a2.32,2.32,0,0,1-.34-.41,1.18,1.18,0,0,1-.07-.44,2.38,2.38,0,0,1,.4-.89c1.17-1.58,3.53-2,5.47-2.42a40,40,0,0,0,14.5-5.66,3,3,0,0,0-2.31-5.48c-4.7.88-9.49,1.57-14.14,2.69A10.09,10.09,0,0,0,103.5,115c-1.13,1.37-1.81,3.27-2.87,4.5-.86,1-2.36.85-3.66.46a24.48,24.48,0,0,1-5.28-2.42c-1.38-.82-2.4-1.75-2.62-2.95.1.53,0-.3,0-.41,0-.37,0-.41,0-.1a4,4,0,0,1,.14-.57c-.2.6.52-.61.08-.13.26-.24.27-.26,0-.06a3.54,3.54,0,0,1,.52-.25l-4.4-1.79c1.11,4-2.74,7.33-6,9.25-4.18,2.43-8.92,4.21-12.19,8a21.87,21.87,0,0,0-2.11,2.94c-.23.37-.57.73-.78,1.07,0,0-.27.21-.32.17s.21-.19.52,0l.47.32c.33.2-.07-.18,0,0,.09.29,0-.48,0-.17,0,0,0-.74,0-.94a17.89,17.89,0,0,1,1.18-3.92c1.59-4.4,2.8-10.08-1.2-13.65-2.28-2-5.26-2.41-8.14-2.9l-9.49-1.63a3.08,3.08,0,0,0-3.69,2.09,3,3,0,0,0,2.1,3.69l12.25,3c1.86.45,3.74.85,5.57,1.39-.16,0,.3.28.14,0s.05.29.07.4c.1.46.18,1.58.39,2.31,1.19,4,5.45,5.09,9.18,4.46a15.37,15.37,0,0,0,8.35-4.63,16.2,16.2,0,0,0,4.41-10.22,3,3,0,0,0-6,0Z" transform="translate(-40.73 -48.72)"/></g><path d="M99.62,122.19c.16-.14.35-.26.5-.42s.37-.49.55-.73a2.43,2.43,0,0,0-.69-.4c-.62-.12-1.27-.15-1.9-.26-5.24-.95-8-3.88-8.48-9.15-.08-.75-.13-1.51-.17-2.26s-.29-.85-.9-.57a8.74,8.74,0,0,1-7.43.06c-.72-.32-.92,0-1,.67-.09,1-.21,2.08-.37,3.12a8.88,8.88,0,0,1-7.45,7.94c-1,.23-2.08.29-3.11.47a2.53,2.53,0,0,0-.69.39,4,4,0,0,0,.5.63,5.15,5.15,0,0,0,.76.53l0,0c-.74,0-1.32-.13-1.17,1,.47,3.82.8,7.66,1.13,11.49a14.81,14.81,0,0,1-.15,2.3,16.08,16.08,0,0,1-.57-2.22c-.51-4.58-1-9.17-1.46-13.75-.07-.64-.17-1.27-.21-1.91a6.26,6.26,0,0,0-4.72-6.06A23.26,23.26,0,0,0,56.3,112a14.23,14.23,0,0,1-7.65-2,14.89,14.89,0,0,0-2.92-1.14,1.74,1.74,0,0,0-.67.07,2.1,2.1,0,0,0,.47.58c2.16,1.29,4.33,2.54,6.49,3.81a9,9,0,0,1,.91.52c.12.09.15.29.22.45a2,2,0,0,1-.62.12,2.76,2.76,0,0,1-.62-.31c-2.58-1.22-5.13-2.49-7.75-3.63a10.9,10.9,0,0,0-2.52-.45,11.32,11.32,0,0,0,1.86,1.4c2.45,1.21,4.94,2.34,7.42,3.5a7.57,7.57,0,0,1,1,.43,2.5,2.5,0,0,1,.52.59,2.13,2.13,0,0,1-.75,0c-.87-.32-1.74-.67-2.59-1-1.29-.56-2.55-1.15-3.84-1.71a1.51,1.51,0,0,0-.48,0c.09.12.15.29.26.34,3.2,1.48,6.1,3.68,9.91,3.59a28,28,0,0,1,5.36.67,7.6,7.6,0,0,1,2.1.85,2.62,2.62,0,0,1,1.57,2.84c-.37,3.53-.64,7.08-1,10.62-.13,1.39-.27,2.79-.45,4.17,0,.24-.25.46-.38.69-.11-.24-.33-.48-.31-.71q.27-3.31.62-6.62c.18-1.8.41-3.6.59-5.4a4,4,0,0,0-.14-1,5.94,5.94,0,0,0-.85.56,7.2,7.2,0,0,0-2.45,5.58c0,2.28,0,4.56,0,6.83,0,.23-.2.46-.31.69-.12-.24-.34-.47-.34-.71,0-2.68-.08-5.37,0-8a7.55,7.55,0,0,1,3.07-5.49c1.64-1.37,1.55-2.74-.44-3.53a12.32,12.32,0,0,0-4.9-1.12c-4.65.23-8.42-1.94-12.29-4a6.74,6.74,0,0,1-3.51-3.44c-.32-.8-.29-1.18.54-1.39a2.22,2.22,0,0,1,1.2,0c.74.27,1.07.26,1.24-.67.05-.27,1.15-.62,1.65-.48a17.26,17.26,0,0,1,3.88,1.51,11.38,11.38,0,0,0,5.84,1.5,19.69,19.69,0,0,1,7.74,1.2c2.84,1.16,4.87,3,5.06,6.27.07,1,.49,1.44,1.57,1.18a34.53,34.53,0,0,0,4.23-.91c3.66-1.4,5-4.43,5.34-8.11,0-.23,0-.47,0-.7a3.5,3.5,0,0,0-1.74-3.76,24.42,24.42,0,0,1-6.14-6.66,2.93,2.93,0,0,0-1.85-1.36c-2.6-.66-4.55-4.15-4-7a2.2,2.2,0,0,0-.3-1.77,19.86,19.86,0,0,1-2.48-8.3,29,29,0,0,0-.59-3.6,8,8,0,0,1,.24-5.31A49.4,49.4,0,0,1,70.9,58.72a19.85,19.85,0,0,1,12.44-6.2,53.42,53.42,0,0,1,8.2-.32c3.51.06,6.5,1.74,9.38,3.55a55,55,0,0,1,9.48,7.73c1.57,1.57,3.09,3.19,5.55,3.31.66,0,.5.56.27.9-1.88,2.71-4,5.25-7.16,6.47-.9.35-1.22.74-1.1,1.62a1,1,0,0,1,0,.35q-1.1,5.91-2.2,11.8a1.61,1.61,0,0,1-.28.64,9.21,9.21,0,0,0-1.61,4.8,5.78,5.78,0,0,1-4.5,5,2,2,0,0,0-1,.8,30.58,30.58,0,0,1-7.53,8,1.72,1.72,0,0,0-.62,1.3,41,41,0,0,0,.68,5.18c.89,4.09,5.65,6.25,9.38,6.08.67,0,.72-.45.76-.93a6.15,6.15,0,0,1,1.9-4.39,14.35,14.35,0,0,1,3.37-2.14,16,16,0,0,1,7.21-1.14,11.4,11.4,0,0,0,5.87-1.34,30.84,30.84,0,0,1,4-1.7c.85-.29,1.76-.34,2,1,0,.13.5.23.77.27.72.1,1.44.15,2.16.23V111c-2.76,3.69-7.08,4.78-11,6.56a10.72,10.72,0,0,1-3.1.36c-1.84.23-3.7.4-5.51.79a5.5,5.5,0,0,0-2.23,1.27c-.91.76-.83,1.6.15,2.27a8.88,8.88,0,0,1,4,8.76c-.15,1.69-.2,3.38-.33,5.07a3.25,3.25,0,0,1-.34.89,2.76,2.76,0,0,1-.31-.87c0-2.16.09-4.32.18-6.48a7.14,7.14,0,0,0-2.66-6,3.84,3.84,0,0,0-.75-.4,3.25,3.25,0,0,0-.17.91c.33,3.77.69,7.55,1,11.32,0,.41.11.81.12,1.22,0,.13-.18.26-.28.38-.16-.12-.44-.23-.46-.37-.14-1-.23-2-.33-3-.4-4.12-.79-8.24-1.2-12.36a2.18,2.18,0,0,1,1.19-2.34,30.33,30.33,0,0,1,4.23-1.59,7.12,7.12,0,0,1,2.6-.25c3.45.31,6.36-1.16,9.26-2.67.93-.49,1.86-1,2.77-1.49a2.28,2.28,0,0,0,.45-.43,2.61,2.61,0,0,0-.63.13c-2.29,1-4.56,2.07-6.86,3.06a5.17,5.17,0,0,1-1.38.16A7.1,7.1,0,0,1,118,115c2.78-1.33,5.58-2.63,8.37-4a5.11,5.11,0,0,0,.9-.54c.12-.08.16-.27.24-.42-.14-.06-.31-.19-.43-.16a18,18,0,0,0-2.82.84c-2.39,1.07-4.73,2.25-7.1,3.35a3.63,3.63,0,0,1-.94.16,3.42,3.42,0,0,1,.68-.82c2-1.2,4-2.36,6-3.53.3-.18.62-.32.91-.52.13-.08.2-.25.3-.39-.19-.07-.42-.24-.57-.19a14,14,0,0,0-2.93,1.11A14.91,14.91,0,0,1,112.8,112a21.89,21.89,0,0,0-6.49,1.16,5.94,5.94,0,0,0-4.38,5.51c-.52,5.74-1.25,11.47-1.9,17.2a4,4,0,0,1-.07.7,1.78,1.78,0,0,1-.25.38c-.13-.16-.37-.33-.36-.49.1-1.51.21-3,.36-4.53.3-2.9.59-5.8.94-8.69.1-.89-.24-1.18-1.06-1.09ZM63.51,79.07l0,0c0,1.1-.06,2.22.07,3.31a17.71,17.71,0,0,0,2.1,6.42c.39.72.81.68,1.53.52,1-.21.53-.85.57-1.34s-.13-.8-.71-.5c0,0-.38-.4-.33-.5a3.66,3.66,0,0,1,.68-1c2.19-2.17,4.28-4.47,6.62-6.47A131.09,131.09,0,0,1,95.3,65.16,20.69,20.69,0,0,1,98.53,64l0,0c.21.26.37.66.64.77A11.44,11.44,0,0,1,103.63,68,39.55,39.55,0,0,1,107,72.68c.57.93,1.05,1.23,2.06.75A16.64,16.64,0,0,0,115,68.12c.44-.58-.09-.7-.44-.81a10.49,10.49,0,0,1-4.27-2.93,55.55,55.55,0,0,0-11.06-8.79A16.52,16.52,0,0,0,92,53a36.71,36.71,0,0,0-9.24.39,19.84,19.84,0,0,0-12,6.59,53.7,53.7,0,0,0-7.61,12.1A7.42,7.42,0,0,0,63.51,79.07Zm37.41,7.16.36-.06a10,10,0,0,0-1.09-2A42.32,42.32,0,0,0,90.4,76c-1.69-1-3.49-1.88-5.28-2.73-.92-.44-3.35.74-3.66,1.67a1.25,1.25,0,0,0,0,.51,8.29,8.29,0,0,0,6.89,6.48c.19,0,.39.1.58.15l-.68.12a4.17,4.17,0,0,1-4.13-1.38,32.56,32.56,0,0,1-2.88-4.33c-.63-1.07-.66-1.17-1.66-.43a69.37,69.37,0,0,0-10.52,9.22,2.06,2.06,0,0,0-.59,1.35c.36,3.3.69,6.63,2.06,9.7a24.63,24.63,0,0,0,8.59,10.18c4,2.76,7.59,2.66,11.49-.17A23.83,23.83,0,0,0,100.92,86.23Zm6.4-10.09a13.53,13.53,0,0,0-.66-2.4,18.54,18.54,0,0,0-4.7-6.25,17.85,17.85,0,0,0-3.43-2,2.3,2.3,0,0,0-2.32.19c-2.65,1.59-5.35,3.09-8,4.65-.86.5-1.67,1.07-2.5,1.61-.48.32-.52.6.08.83.28.1.54.23.8.35a45.76,45.76,0,0,1,15.74,12.27c.69.84.67.85-.25,1.21l-.15.08c-.53.45-.22,2.34.44,2.64,1.39.63,1.46.67,2.12-.6a14.83,14.83,0,0,0,1.21-3.08,4.54,4.54,0,0,0-.62-4.15c-.93-1.2-1.79-2.44-2.66-3.69a6.14,6.14,0,0,1-.45-1,4.25,4.25,0,0,1,.78.6c1,1.25,1.87,2.53,2.81,3.78a4,4,0,0,0,.46.46,4,4,0,0,0,.24-.57C106.61,79.42,107,77.78,107.32,76.14Zm-39.65,14a1.37,1.37,0,0,0-1.4,1.37,5.76,5.76,0,0,0,3,5.83,2.52,2.52,0,0,0,.63.15,2.23,2.23,0,0,0,0-.63c-.39-1.33-.81-2.65-1.24-4a2.36,2.36,0,0,0-.38-.76c-.29-.4-.23-.38-.14-1.09C68.15,90.72,67.8,90.36,67.67,90.12Zm35.59,1.71a4.32,4.32,0,0,0-.59-1.38c-.16-.21-.81-.06-1.23,0a1.63,1.63,0,0,0,0,.73c1.86.54,0,.58-.12.81s-.38.46-.47.73c-.44,1.38-.87,2.76-1.27,4.16,0,.18.07.41.11.62a2.24,2.24,0,0,0,.48-.13A6.22,6.22,0,0,0,103.26,91.83Z" transform="translate(-40.73 -48.72)"/><path d="M99.59,122.16c-1.57.51-3.11,1.13-4.71,1.51-1.8.42-3.65.62-5.48.9-.18,0-.39-.13-.58-.19a1.65,1.65,0,0,1,.44-.22q4.83-1,9.67-2a3.24,3.24,0,0,1,.69,0Z" transform="translate(-40.73 -48.72)"/><path d="M74,123.2c2.06.32,4.12.63,6.18,1,.15,0,.29.16.43.24-.1.06-.21.17-.29.16-2.11-.41-4.38-.11-6.29-1.4Z" transform="translate(-40.73 -48.72)"/><path d="M71.24,122.48l2.79.72,0,0a2.88,2.88,0,0,1-2.79-.72Z" transform="translate(-40.73 -48.72)"/><path d="M71.27,122.44l-1.48-.27,0,0,1.48.27Z" transform="translate(-40.73 -48.72)"/><path d="M63.51,79.07a13.7,13.7,0,0,1,1-2.17,37.76,37.76,0,0,1,12-11.27,9.94,9.94,0,0,0,1.36-1.16l-1.8.45c-.42.11-.83.25-1.25.38a4.9,4.9,0,0,1,1-.81,14.09,14.09,0,0,1,2.14-.7c.18,0,.55.08.59.21a.94.94,0,0,1-.09.76,3.94,3.94,0,0,1-1,.92A37.64,37.64,0,0,0,63.89,78.79c-.07.12-.27.17-.41.26Z" transform="translate(-40.73 -48.72)"/><path d="M98.53,64a4.11,4.11,0,0,1,3.84,0l0,0-3.89,0Z" transform="translate(-40.73 -48.72)"/><path d="M102.37,64l1.41.46-.12.25L102.4,64Z" transform="translate(-40.73 -48.72)"/><path d="M84.26,103.8a14.52,14.52,0,0,1-2.94-1.56,21.15,21.15,0,0,1-2.57-3,1.22,1.22,0,0,1-.14-.48,2,2,0,0,1,.42,0,24.67,24.67,0,0,0,8.81.57,14.52,14.52,0,0,0,1.74-.22,7.4,7.4,0,0,0,1.22-.49,10.54,10.54,0,0,1-.72,1.47A7.66,7.66,0,0,1,86,103.41C85.54,103.53,85.09,103.61,84.26,103.8Zm-3.17-4,0-.21-1.11.3a3.6,3.6,0,0,0,.61,1,13,13,0,0,0,2.52,1.81,4,4,0,0,0,2.33.33,6.84,6.84,0,0,0,3.8-2.61c.39-.49.25-.76-.35-.72-.8.06-1.6.29-2.41.29C84.67,100,82.88,99.85,81.09,99.79Z" transform="translate(-40.73 -48.72)"/><path d="M74.52,88a8.5,8.5,0,0,0-2,.88c-.79.62-1.44.29-2.09-.06a1.13,1.13,0,0,1-.12-1.9s.35.07.41.17c.75,1.25.75,1.27,2.09.61A3.8,3.8,0,0,1,76,87.49a11.21,11.21,0,0,1,2,1,12.63,12.63,0,0,1,1.47,1.37c-.76.62-1.24-.23-1.82-.41a5.42,5.42,0,0,0-4.54.34,1.63,1.63,0,0,1-.45.08c.07-.19.09-.49.22-.55.69-.28,1.4-.51,2.11-.76l.76-.28-.84-.14a2,2,0,0,0-.35,0Z" transform="translate(-40.73 -48.72)"/><path d="M99.21,87.25c-.14,2-.65,2.24-2.46,1.4a10,10,0,0,0-2.67-.46c-.11,0-.25.11-.37.17l.46.16c.87.31,1.74.6,2.59.93.11,0,.14.28.21.43-.16,0-.36.09-.47,0-1.88-1.21-3.74-.92-5.62,0-.2.1-.49,0-.74,0,.07-.2.08-.49.22-.6,1.34-1,2.73-2.06,4.51-2.06a4.36,4.36,0,0,1,2.28.67c1,.63,1.33.33,1.59-.61a2.72,2.72,0,0,1,.36-.61Z" transform="translate(-40.73 -48.72)"/><path d="M94.81,83.15c-1.2.19-2.41.39-3.62.56a1.4,1.4,0,0,1-.49-.08c.08-.12.15-.32.24-.33q2.84-.31,5.69-.56c.16,0,.35.25.52.38a4,4,0,0,1-.58.11H94.82Z" transform="translate(-40.73 -48.72)"/><path d="M74.36,82.52c1.42.24,2.78.47,4.13.72.14,0,.26.16.39.25-.17.08-.36.24-.53.23-1.88-.13-3.77-.29-5.65-.45a1.56,1.56,0,0,1-.39-.15c.13-.09.25-.24.4-.27C73.27,82.72,73.83,82.62,74.36,82.52Z" transform="translate(-40.73 -48.72)"/><path d="M82.85,95.34a2.43,2.43,0,0,0,1,1c.22.11.45.14.64.26a6.26,6.26,0,0,1,.66.44v.08a1.13,1.13,0,0,1-.9.19,1.55,1.55,0,0,1-.76-.49,2.34,2.34,0,0,1-.74-1.51Z" transform="translate(-40.73 -48.72)"/><g class="cls-7"><path class="cls-8" d="M82.82,80.7l-.51.51a.63.63,0,0,0-.16.24.58.58,0,0,0-.06.29.56.56,0,0,0,.06.29.51.51,0,0,0,.16.24l.15.12a.72.72,0,0,0,.38.1l.2,0a.7.7,0,0,0,.33-.2l.51-.51a.49.49,0,0,0,.15-.24.57.57,0,0,0,.07-.29.59.59,0,0,0-.07-.29.61.61,0,0,0-.15-.24l-.15-.11a.76.76,0,0,0-.38-.11l-.2,0a.78.78,0,0,0-.33.19Z" transform="translate(-40.73 -48.72)"/></g></g><g id="nyehænder"><path d="M144.8,98.23H126.64l.37.37v-12l-.37.38H144.8l-.37-.38v12a.38.38,0,0,0,.75,0v-12a.38.38,0,0,0-.38-.37H126.64a.38.38,0,0,0-.38.37v12a.39.39,0,0,0,.38.38H144.8A.38.38,0,0,0,144.8,98.23Z" transform="translate(-40.73 -48.72)"/><path d="M126.45,86.9l7.84,5.57,1.12.8c.4.28.77-.37.38-.65L128,87.05l-1.12-.8c-.4-.28-.77.37-.38.65Z" transform="translate(-40.73 -48.72)"/><path d="M135.79,93.27l8.05-5.37,1.15-.77c.4-.26,0-.91-.38-.65l-8.05,5.37-1.15.77c-.4.26,0,.91.38.65Z" transform="translate(-40.73 -48.72)"/><path class="cls-9" d="M125.15,84l-2.25-2.83" transform="translate(-40.73 -48.72)"/><path class="cls-9" d="M124.47,85.75l-4.47-.5" transform="translate(-40.73 -48.72)"/><path class="cls-9" d="M147.09,84.41l3.12-3.67" transform="translate(-40.73 -48.72)"/><path class="cls-9" d="M148.79,85.39l2-.56" transform="translate(-40.73 -48.72)"/><path class="cls-9" d="M148.35,87.4l2.8,1.44" transform="translate(-40.73 -48.72)"/><path class="cls-9" d="M127.19,83.7V80.31" transform="translate(-40.73 -48.72)"/></g></svg>