<?xml version="1.0" encoding="utf-8"?>
<!-- Generator: Adobe Illustrator 24.1.1, SVG Export Plug-In . SVG Version: 6.00 Build 0)  -->
<svg version="1.1" id="Layer_1" xmlns="http://www.w3.org/2000/svg" xmlns:xlink="http://www.w3.org/1999/xlink" x="0px" y="0px"
	 viewBox="0 0 500 500" style="enable-background:new 0 0 500 500;" xml:space="preserve">
<style type="text/css">
	.st0{fill:#FFFFFF;}
</style>
<g>
	<path d="M378.19,152.19v195.99c0,16.57-13.43,30-30,30h-196c-16.57,0-30-13.43-30-30V152.19c0-16.57,13.43-30,30-30h196
		C364.76,122.19,378.19,135.62,378.19,152.19z"/>
	<g>
		<path class="st0" d="M327.42,183.58c0,5.5-1.93,9.69-7.36,8.81c-2.2-0.36-7.36-0.54-9.48-0.54c-14.59,0-21.88,7.92-21.88,23.75
			v15.69h30.58c3.92,0,7.1,3.18,7.1,7.1l-4,19.33c0,3.92-3.18,6.1-7.1,6.1H288.7v114.36h-45.34V264.83H225.7
			c-3.92-1-7.1-4.18-7.1-8.1v-18.33c0-3.92,3.18-7.1,7.1-7.1h17.65v-18.28c0-16.79,5.47-30.32,16.41-40.59
			c10.94-10.27,25.81-15.4,44.62-15.4c5.81,0,11.01,0.38,15.6,1.15c4.3,0.71,7.43,4.45,7.43,8.8V183.58z"/>
	</g>
</g>
</svg>
