<svg id="Layer_1" data-name="Layer 1" xmlns="http://www.w3.org/2000/svg" viewBox="0 0 17 16.5"><defs><style>.cls-1{fill:none;stroke:#000;stroke-miterlimit:10;}.cls-2{fill:#fff;}</style></defs><path class="cls-1" d="M400.25,395.82c2.44-2.34,6.64,1.7,4.2,4l-4.25,4.08-4.2-4C393.4,397.41,397.66,393.33,400.25,395.82Z" transform="translate(-391.56 -391.26)"/><ellipse class="cls-1" cx="8.5" cy="7.61" rx="8" ry="7.11"/><path class="cls-2" d="M405.06,407.51a2.44,2.44,0,1,1,2.75-2.42A2.6,2.6,0,0,1,405.06,407.51Z" transform="translate(-391.56 -391.26)"/><path d="M405.06,402.93a2.19,2.19,0,1,1-2.5,2.16,2.35,2.35,0,0,1,2.5-2.16m0-.5a2.68,2.68,0,1,0,3,2.66,2.85,2.85,0,0,0-3-2.66Z" transform="translate(-391.56 -391.26)"/><rect x="12" y="13.39" width="3" height="0.89" rx="0.44"/><rect x="13" y="12.5" width="1" height="2.67" rx="0.5"/></svg>